<svg width="630" height="881" viewBox="0 0 630 881" fill="none" xmlns="http://www.w3.org/2000/svg">
<path d="M306.983 524.737C415.126 524.737 487.709 490.535 523.757 475.701C530.508 438.363 533.703 388.671 531 335.825C570.313 328.941 624.538 306.19 621.908 229.338C618.014 115.564 492.624 123.103 492.624 123.103C492.624 123.103 487.366 122.779 480.5 123.554C467.417 125.032 448.499 130.505 449.01 149.833C449.633 173.411 492.624 169.024 492.624 169.024C495.151 169.024 497.61 169.067 500 169.151C561.693 171.323 578.294 200.966 578.294 229.338C578.294 252.64 565.635 285.797 528 298.658C523.424 254.73 514.543 209.962 500 169.151C497.61 169.067 495.151 169.024 492.624 169.024C492.624 169.024 449.633 173.411 449.01 149.833C448.499 130.505 467.417 125.032 480.5 123.554C445.701 55.9147 390.729 8 306.983 8C178.627 8 120.26 108.627 95.5 224.077C60.6037 229.595 5.59396 251.136 8.08153 338.262C10.0469 407.097 47.0051 434.047 78.3772 444.5C101.979 452.364 122.419 450.891 122.419 450.891C122.419 450.891 161.68 453.797 160.991 422.552C160.44 397.555 122.419 402.206 122.419 402.206C104.084 402.206 89.875 399.144 78.9847 394C54.2837 382.332 46.6533 359.947 46.6533 338.262C46.6533 314.297 57.188 280.501 88.202 266.052C81.8215 309.523 79.3282 353.572 78.9847 394C89.875 399.144 104.084 402.206 122.419 402.206C122.419 402.206 160.44 397.555 160.991 422.552C161.68 453.797 122.419 450.891 122.419 450.891C122.419 450.891 101.979 452.364 78.3772 444.5C78.7154 455.259 80.44 466.03 80.9537 475.701C120.087 493.557 220.079 528.364 306.983 524.737Z" fill="#EADC91"/>
<path d="M78.9847 394C79.3282 353.572 81.8215 309.523 88.202 266.052C57.188 280.501 46.6533 314.297 46.6533 338.262M78.9847 394C89.875 399.144 104.084 402.206 122.419 402.206M78.9847 394C54.2837 382.332 46.6533 359.947 46.6533 338.262M78.3772 444.5C78.7154 455.259 80.44 466.03 80.9537 475.701C120.087 493.557 220.079 528.364 306.983 524.737C415.126 524.737 487.709 490.535 523.757 475.701C530.508 438.363 533.703 388.671 531 335.825C570.313 328.941 624.538 306.19 621.908 229.338M78.3772 444.5C47.0051 434.047 10.0469 407.097 8.08153 338.262M78.3772 444.5C101.979 452.364 122.419 450.891 122.419 450.891M480.5 123.554C445.701 55.9147 390.729 8 306.983 8C178.627 8 120.26 108.627 95.5 224.077C60.6037 229.595 5.59396 251.136 8.08153 338.262M480.5 123.554C467.417 125.032 448.499 130.505 449.01 149.833C449.633 173.411 492.624 169.024 492.624 169.024C495.151 169.024 497.61 169.067 500 169.151M480.5 123.554C487.366 122.779 492.624 123.103 492.624 123.103C492.624 123.103 618.014 115.564 621.908 229.338M500 169.151C514.543 209.962 523.424 254.73 528 298.658C565.635 285.797 578.294 252.64 578.294 229.338M500 169.151C561.693 171.323 578.294 200.966 578.294 229.338M122.419 259.058C64.5616 259.058 46.6533 307.017 46.6533 338.262M46.6533 338.262C46.6533 369.507 62.4952 402.206 122.419 402.206M122.419 402.206C122.419 402.206 160.44 397.555 160.991 422.552C161.68 453.797 122.419 450.891 122.419 450.891M122.419 450.891C122.419 450.891 11.5254 458.884 8.08153 338.262M8.08153 338.262C4.63762 217.64 111.399 222.727 122.419 222M492.624 304.045C558.045 304.045 578.294 258.81 578.294 229.338M621.908 229.338C625.802 343.112 505.085 338.315 492.624 339" stroke="#DCB984" stroke-width="15"/>
<path d="M311.226 823.036C419.37 823.036 491.952 788.835 528 774C534.752 736.662 533.703 388.671 531 335.825C570.313 328.941 624.538 306.19 621.908 229.338C618.014 115.564 492.624 123.103 492.624 123.103C492.624 123.103 487.366 122.779 480.5 123.554C467.417 125.032 448.499 130.505 449.01 149.833C449.633 173.411 492.624 169.024 492.624 169.024C495.151 169.024 497.61 169.067 500 169.151C561.693 171.323 578.294 200.966 578.294 229.338C578.294 252.64 565.635 285.797 528 298.658C523.424 254.73 514.543 209.962 500 169.151C497.61 169.067 495.151 169.024 492.624 169.024C492.624 169.024 449.633 173.411 449.01 149.833C448.499 130.505 467.417 125.032 480.5 123.554C445.701 55.9147 390.729 8 306.983 8C178.627 8 120.26 108.627 95.5 224.077C60.6037 229.595 5.59396 251.136 8.08153 338.262C10.0469 407.097 47.0051 434.047 78.3772 444.5C101.979 452.364 122.419 450.891 122.419 450.891C122.419 450.891 161.68 453.797 160.991 422.552C160.44 397.555 122.419 402.206 122.419 402.206C104.084 402.206 89.875 399.144 78.9847 394C54.2837 382.332 46.6533 359.947 46.6533 338.262C46.6533 314.297 57.188 280.501 88.202 266.052C81.8215 309.523 79.3282 353.572 78.9847 394C89.875 399.144 104.084 402.206 122.419 402.206C122.419 402.206 160.44 397.555 160.991 422.552C161.68 453.797 122.419 450.891 122.419 450.891C122.419 450.891 101.979 452.364 78.3772 444.5C78.7154 455.259 84.6835 764.329 85.1972 774C124.33 791.856 224.322 826.663 311.226 823.036Z" fill="#EADC91"/>
<path d="M78.9847 394C79.3282 353.572 81.8215 309.523 88.202 266.052C57.188 280.501 46.6533 314.297 46.6533 338.262M78.9847 394C89.875 399.144 104.084 402.206 122.419 402.206M78.9847 394C54.2837 382.332 46.6533 359.947 46.6533 338.262M78.3772 444.5C78.7154 455.259 84.6835 764.329 85.1972 774C124.33 791.856 224.322 826.663 311.226 823.036C419.37 823.036 491.952 788.835 528 774C534.752 736.662 533.703 388.671 531 335.825C570.313 328.941 624.538 306.19 621.908 229.338M78.3772 444.5C47.0051 434.047 10.0469 407.097 8.08153 338.262M78.3772 444.5C101.979 452.364 122.419 450.891 122.419 450.891M480.5 123.554C445.701 55.9147 390.729 8 306.983 8C178.627 8 120.26 108.627 95.5 224.077C60.6037 229.595 5.59396 251.136 8.08153 338.262M480.5 123.554C467.417 125.032 448.499 130.505 449.01 149.833C449.633 173.411 492.624 169.024 492.624 169.024C495.151 169.024 497.61 169.067 500 169.151M480.5 123.554C487.366 122.779 492.624 123.103 492.624 123.103C492.624 123.103 618.014 115.564 621.908 229.338M500 169.151C514.543 209.962 523.424 254.73 528 298.658C565.635 285.797 578.294 252.64 578.294 229.338M500 169.151C561.693 171.323 578.294 200.966 578.294 229.338M122.419 259.058C64.5616 259.058 46.6533 307.017 46.6533 338.262M46.6533 338.262C46.6533 369.507 62.4952 402.206 122.419 402.206M122.419 402.206C122.419 402.206 160.44 397.555 160.991 422.552C161.68 453.797 122.419 450.891 122.419 450.891M122.419 450.891C122.419 450.891 11.5254 458.884 8.08153 338.262M8.08153 338.262C4.63762 217.64 111.399 222.727 122.419 222M492.624 304.045C558.045 304.045 578.294 258.81 578.294 229.338M621.908 229.338C625.802 343.112 505.085 338.315 492.624 339" stroke="#DCB984" stroke-width="15"/>
<ellipse cx="305.5" cy="337" rx="38.5" ry="51" fill="black"/>
<circle cx="390" cy="204" r="40" fill="black"/>
<circle cx="216" cy="204" r="40" fill="black"/>
</svg>
