<svg width="640" height="543" viewBox="0 0 640 543" fill="none" xmlns="http://www.w3.org/2000/svg">
<path d="M83.9847 399C84.3282 358.572 86.8215 314.523 93.202 271.052C62.188 285.501 51.6533 319.297 51.6533 343.262M83.9847 399C94.875 404.144 109.084 407.206 127.419 407.206M83.9847 399C59.2837 387.332 51.6533 364.947 51.6533 343.262M83.3772 449.5C83.7154 460.259 85.44 471.03 85.9537 480.701C125.087 498.557 225.079 533.364 311.983 529.737C420.126 529.737 492.709 495.535 528.757 480.701C535.508 443.363 538.703 393.671 536 340.825C575.313 333.941 629.538 311.19 626.908 234.338M83.3772 449.5C52.0051 439.047 15.0469 412.097 13.0815 343.262M83.3772 449.5C106.979 457.364 127.419 455.891 127.419 455.891M485.5 128.554C450.701 60.9147 395.729 13 311.983 13C183.627 13 125.26 113.627 100.5 229.077C65.6037 234.595 10.594 256.136 13.0815 343.262M485.5 128.554C472.417 130.032 453.499 135.505 454.01 154.833C454.633 178.411 497.624 174.024 497.624 174.024C500.151 174.024 502.61 174.067 505 174.151M485.5 128.554C492.366 127.779 497.624 128.103 497.624 128.103C497.624 128.103 623.014 120.564 626.908 234.338M505 174.151C519.543 214.962 528.424 259.73 533 303.658C570.635 290.797 583.294 257.64 583.294 234.338M505 174.151C566.693 176.323 583.294 205.966 583.294 234.338M127.419 264.058C69.5616 264.058 51.6533 312.017 51.6533 343.262M51.6533 343.262C51.6533 374.507 67.4952 407.206 127.419 407.206M127.419 407.206C127.419 407.206 165.44 402.555 165.991 427.552C166.68 458.797 127.419 455.891 127.419 455.891M127.419 455.891C127.419 455.891 16.5254 463.884 13.0815 343.262M13.0815 343.262C9.63761 222.64 116.399 227.727 127.419 227M497.624 309.045C563.045 309.045 583.294 263.81 583.294 234.338M626.908 234.338C630.802 348.112 510.085 343.315 497.624 344" stroke="white" stroke-width="25"/>
<ellipse cx="310.5" cy="342" rx="38.5" ry="51" fill="white"/>
<circle cx="395" cy="209" r="40" fill="white"/>
<circle cx="221" cy="209" r="40" fill="white"/>
</svg>
